<?xml version="1.0" encoding="UTF-8" standalone="no"?>
<!-- Created with Inkscape (http://www.inkscape.org/) -->
<svg xmlns:rdf="http://www.w3.org/1999/02/22-rdf-syntax-ns#" xmlns="http://www.w3.org/2000/svg" xmlns:cc="http://web.resource.org/cc/" xmlns:dc="http://purl.org/dc/elements/1.1/" xmlns:svg="http://www.w3.org/2000/svg" xmlns:inkscape="http://www.inkscape.org/namespaces/inkscape" xmlns:sodipodi="http://sodipodi.sourceforge.net/DTD/sodipodi-0.dtd" xmlns:ns1="http://sozi.baierouge.fr" xmlns:xlink="http://www.w3.org/1999/xlink" id="svg2" viewBox="0 0 335.62 312.58" version="1.0" inkscape:version="0.91 r13725">
  <g id="layer1" transform="translate(-183.13 -370.09)">
    <path id="path2383" style="stroke-linejoin:round;stroke:#000000;stroke-linecap:round;stroke-width:3.2874;fill:#784421" d="m441.29 560.71c0.02 49.72-40.29 90.04-90.02 90.04-49.72 0-90.03-40.32-90.02-90.04-0.01-49.73 40.3-90.05 90.02-90.05 49.73 0 90.04 40.32 90.02 90.05z" transform="matrix(1.2168 0 0 1.2168 -76.15 -121.55)"/>
    <path id="path3221" style="fill:#000000;fill-opacity:.31373" d="m454.19 523.12c0.07 1.69 0.12 3.4 0.12 5.1 0 60.46-49.06 109.53-109.53 109.53-47.26 0-87.59-30-102.94-71.97 2.66 58.11 50.68 104.47 109.44 104.47 60.47 0 109.53-49.07 109.53-109.53 0-13.2-2.34-25.87-6.62-37.6z"/>
    <path id="path3172" style="stroke-linejoin:round;stroke:#000000;stroke-linecap:round;stroke-width:4;fill:#502d16" d="m359.45 671.28c0 9.09 14.67 9.38 32.74 9.38s32.73 0.69 32.73-9.38c0-17.72-14.66-32.1-32.73-32.1s-32.74 14.38-32.74 32.1z"/>
    <path id="path3236" style="fill:#000000;fill-opacity:.31373" d="m435.91 536.83c0 50.6-55.12 91.67-81.84 91.67-25.72 0-81.84-41.07-81.84-91.67s24.63-91.66 81.84-91.66c57.22 0 81.84 41.06 81.84 91.66z"/>
    <path id="path3174" style="stroke-linejoin:round;fill-rule:evenodd;fill-opacity:.31373;stroke:#000000;stroke-width:4;fill:#000000" d="m404.78 680.06c0-16.37-9.44-26.44-9.44-26.44s3.77 13.85 3.14 26.44h6.3z"/>
    <path id="path3155" style="stroke-linejoin:round;stroke:#000000;stroke-linecap:round;stroke-width:4;fill:#784421" d="m348.61 430.41c-30.13 0.68-50.93 13.05-63.62 32.2-24.07-2.9-44.07 26.47-44.07 26.47s18.89 10.58 32.07 1.71c-2.4 9.76-3.57 20.28-3.57 31.26 0 50.6 56.13 91.67 81.85 91.67 26.71 0 81.84-41.07 81.84-91.67 0-10.98-1.16-21.5-3.56-31.26 13.17 8.87 32.03-1.71 32.03-1.71s-19.97-29.36-44.03-26.47c-13.06-19.7-34.71-32.2-66.28-32.2-0.9 0-1.78-0.02-2.66 0z"/>
    <path id="path2399" style="stroke-linejoin:round;fill-rule:evenodd;stroke:#000000;stroke-width:5;fill:#502d16" d="m382.24 434.17c22.64-2.37 34.04-7.45 39.5-12 17.75-14.81 11.32-28.55 22-25.5 10.5 3 10.47 14.69 17.5 18 8.5 4-2.04-35.17 6.5-32.5 8 2.5 8.97 22.34 21 27.5 10.5 4.5-6.61-46.59 8-35.5 14.5 11 35 55 1 67s-84.45 15.48-101 15c-17-0.5-32.66-20.1-14.5-22z"/>
    <path id="path3157" style="stroke-linejoin:round;stroke:#000000;stroke-linecap:round;stroke-width:15.889;fill:#ffffff" d="m441.29 560.71c0.02 49.72-40.29 90.04-90.02 90.04-49.72 0-90.03-40.32-90.02-90.04-0.01-49.73 40.3-90.05 90.02-90.05 49.73 0 90.04 40.32 90.02 90.05z" transform="matrix(.25175 0 0 .25175 236.55 359.08)"/>
    <path id="path3159" style="stroke-linejoin:round;stroke:#000000;stroke-linecap:round;stroke-width:15.889;fill:#ffffff" d="m441.29 560.71c0.02 49.72-40.29 90.04-90.02 90.04-49.72 0-90.03-40.32-90.02-90.04-0.01-49.73 40.3-90.05 90.02-90.05 49.73 0 90.04 40.32 90.02 90.05z" transform="matrix(.25175 0 0 .25175 289.28 359.08)"/>
    <path id="path3161" style="fill:#000000" d="m441.29 560.71c0.02 49.72-40.29 90.04-90.02 90.04-49.72 0-90.03-40.32-90.02-90.04-0.01-49.73 40.3-90.05 90.02-90.05 49.73 0 90.04 40.32 90.02 90.05z" transform="matrix(.083916 0 0 .083916 343.2 457.18)"/>
    <path id="path3163" style="fill:#000000" d="m441.29 560.71c0.02 49.72-40.29 90.04-90.02 90.04-49.72 0-90.03-40.32-90.02-90.04-0.01-49.73 40.3-90.05 90.02-90.05 49.73 0 90.04 40.32 90.02 90.05z" transform="matrix(.083916 0 0 .083916 301.17 457.18)"/>
    <path id="path3231" style="fill:#000000;fill-opacity:.31373" d="m429.83 492.02l-1.87 2.97c0.24 3.45 0.34 6.95 0.34 10.5 0 50.6-55.13 91.68-81.84 91.68-20.71 0-61.1-26.61-76.07-63.4 7.62 45.08 57.17 79.95 80.88 79.95 26.71 0 81.84-41.07 81.84-91.67 0-10.52-1.07-20.62-3.28-30.03z"/>
    <path id="path3329" style="stroke-linejoin:round;stroke:#000000;stroke-linecap:round;stroke-width:4;fill:#502d16" d="m344.46 671.28c0 9.09-14.67 9.38-32.74 9.38s-32.73 0.69-32.73-9.38c0-17.72 14.66-32.1 32.73-32.1s32.74 14.38 32.74 32.1z"/>
    <path id="path3331" style="stroke-linejoin:round;fill-rule:evenodd;fill-opacity:.31373;stroke:#000000;stroke-width:4;fill:#000000" d="m299.13 680.06c0-16.37 9.44-26.44 9.44-26.44s-3.77 13.85-3.14 26.44h-6.3z"/>
    <path id="path2398" style="fill:#000000" d="m367.87 576.37c-2.29 3.97-6.5 5.84-9.4 4.16-2.89-1.67-3.38-6.25-1.09-10.22s6.5-5.84 9.4-4.16c2.89 1.67 3.38 6.24 1.09 10.22z"/>
    <path id="path2412" style="fill:#000000" d="m335.13 576.37c2.29 3.97 6.5 5.84 9.4 4.16 2.89-1.67 3.38-6.25 1.09-10.22s-6.5-5.84-9.4-4.16c-2.89 1.67-3.38 6.24-1.09 10.22z"/>
    <path id="path3171" style="stroke-linejoin:round;fill-rule:evenodd;stroke:#000000;stroke-width:5;fill:#502d16" d="m319.64 434.17c-22.64-2.37-34.04-7.45-39.5-12-17.75-14.81-11.33-28.55-22-25.5-10.5 3-10.48 14.69-17.5 18-8.5 4 2.04-35.17-6.5-32.5-8 2.5-8.97 22.34-21 27.5-10.5 4.5 6.61-46.59-8-35.5-14.5 11-35 55-1 67s84.45 15.48 101 15c17-0.5 32.66-20.1 14.5-22z"/>
  </g>
  <metadata>
    <rdf:RDF>
      <cc:Work>
        <dc:format>image/svg+xml</dc:format>
        <dc:type rdf:resource="http://purl.org/dc/dcmitype/StillImage"/>
        <cc:license rdf:resource="http://creativecommons.org/licenses/publicdomain/"/>
        <dc:publisher>
          <cc:Agent rdf:about="http://openclipart.org/">
            <dc:title>Openclipart</dc:title>
          </cc:Agent>
        </dc:publisher>
        <dc:title>Cartoon elk</dc:title>
        <dc:date>2008-07-07T19:01:55</dc:date>
        <dc:description/>
        <dc:source>https://openclipart.org/detail/17635/cartoon-elk-by-lemmling</dc:source>
        <dc:creator>
          <cc:Agent>
            <dc:title>lemmling</dc:title>
          </cc:Agent>
        </dc:creator>
        <dc:subject>
          <rdf:Bag>
            <rdf:li>animal</rdf:li>
            <rdf:li>cartoon</rdf:li>
            <rdf:li>colour</rdf:li>
            <rdf:li>elk</rdf:li>
            <rdf:li>funny</rdf:li>
            <rdf:li>how i did it</rdf:li>
            <rdf:li>mammal</rdf:li>
          </rdf:Bag>
        </dc:subject>
      </cc:Work>
      <cc:License rdf:about="http://creativecommons.org/licenses/publicdomain/">
        <cc:permits rdf:resource="http://creativecommons.org/ns#Reproduction"/>
        <cc:permits rdf:resource="http://creativecommons.org/ns#Distribution"/>
        <cc:permits rdf:resource="http://creativecommons.org/ns#DerivativeWorks"/>
      </cc:License>
    </rdf:RDF>
  </metadata>
</svg>
