<svg xmlns="http://www.w3.org/2000/svg" viewBox="0 0 335.62 312.58" version="1.0"><path d="M277.682 190.632c.024 60.5-49.025 109.56-109.537 109.56-60.499 0-109.548-49.06-109.536-109.56-.012-60.512 49.037-109.573 109.536-109.573 60.512 0 109.561 49.061 109.537 109.573z" stroke-linejoin="round" stroke="#000" stroke-linecap="round" stroke-width="4" fill="#784421"/><path d="M271.06 153.03c.07 1.69.12 3.4.12 5.1 0 60.46-49.06 109.53-109.53 109.53-47.26 0-87.59-30-102.94-71.97 2.66 58.11 50.68 104.47 109.44 104.47 60.47 0 109.53-49.07 109.53-109.53 0-13.2-2.34-25.87-6.62-37.6z" fill-opacity=".314"/><path d="M176.32 301.19c0 9.09 14.67 9.38 32.74 9.38s32.73.69 32.73-9.38c0-17.72-14.66-32.1-32.73-32.1s-32.74 14.38-32.74 32.1z" stroke-linejoin="round" stroke="#000" stroke-linecap="round" stroke-width="4" fill="#502d16"/><path d="M252.78 166.74c0 50.6-55.12 91.67-81.84 91.67-25.72 0-81.84-41.07-81.84-91.67s24.63-91.66 81.84-91.66c57.22 0 81.84 41.06 81.84 91.66z" fill-opacity=".314"/><path d="M221.65 309.97c0-16.37-9.44-26.44-9.44-26.44s3.77 13.85 3.14 26.44h6.3z" stroke-linejoin="round" fill-rule="evenodd" fill-opacity=".314" stroke="#000" stroke-width="4"/><path d="M165.48 60.32c-30.13.68-50.93 13.05-63.62 32.2-24.07-2.9-44.07 26.47-44.07 26.47s18.89 10.58 32.07 1.71c-2.4 9.76-3.57 20.28-3.57 31.26 0 50.6 56.13 91.67 81.85 91.67 26.71 0 81.84-41.07 81.84-91.67 0-10.98-1.16-21.5-3.56-31.26 13.17 8.87 32.03-1.71 32.03-1.71s-19.97-29.36-44.03-26.47c-13.06-19.7-34.71-32.2-66.28-32.2-.9 0-1.78-.02-2.66 0z" stroke-linejoin="round" stroke="#000" stroke-linecap="round" stroke-width="4" fill="#784421"/><path d="M199.11 64.08c22.64-2.37 34.04-7.45 39.5-12 17.75-14.81 11.32-28.55 22-25.5 10.5 3 10.47 14.69 17.5 18 8.5 4-2.04-35.17 6.5-32.5 8 2.5 8.97 22.34 21 27.5 10.5 4.5-6.61-46.59 8-35.5 14.5 11 35 55 1 67s-84.45 15.48-101 15c-17-.5-32.66-20.1-14.5-22z" stroke-linejoin="round" fill-rule="evenodd" stroke="#000" stroke-width="5" fill="#502d16"/><path d="M164.515 130.149c.005 12.517-10.143 22.667-22.663 22.667-12.517 0-22.665-10.15-22.662-22.667-.003-12.52 10.145-22.67 22.662-22.67 12.52 0 22.668 10.15 22.663 22.67zm52.73 0c.005 12.517-10.143 22.667-22.663 22.667-12.517 0-22.665-10.15-22.662-22.667-.003-12.52 10.145-22.67 22.662-22.67 12.52 0 22.668 10.15 22.663 22.67z" stroke-linejoin="round" stroke="#000" stroke-linecap="round" stroke-width="4" fill="#fff"/><path d="M197.101 134.143a7.555 7.555 0 11-15.108 0 7.555 7.555 0 1115.108 0zm-42.03 0a7.555 7.555 0 11-15.108 0 7.555 7.555 0 1115.108 0z"/><path d="M246.7 121.93l-1.87 2.97c.24 3.45.34 6.95.34 10.5 0 50.6-55.13 91.68-81.84 91.68-20.71 0-61.1-26.61-76.07-63.4 7.62 45.08 57.17 79.95 80.88 79.95 26.71 0 81.84-41.07 81.84-91.67 0-10.52-1.07-20.62-3.28-30.03z" fill-opacity=".314"/><path d="M161.33 301.19c0 9.09-14.67 9.38-32.74 9.38s-32.73.69-32.73-9.38c0-17.72 14.66-32.1 32.73-32.1s32.74 14.38 32.74 32.1z" stroke-linejoin="round" stroke="#000" stroke-linecap="round" stroke-width="4" fill="#502d16"/><path d="M116 309.97c0-16.37 9.44-26.44 9.44-26.44s-3.77 13.85-3.14 26.44H116z" stroke-linejoin="round" fill-rule="evenodd" fill-opacity=".314" stroke="#000" stroke-width="4"/><path d="M184.74 206.28c-2.29 3.97-6.5 5.84-9.4 4.16-2.89-1.67-3.38-6.25-1.09-10.22s6.5-5.84 9.4-4.16c2.89 1.67 3.38 6.24 1.09 10.22zm-32.74 0c2.29 3.97 6.5 5.84 9.4 4.16 2.89-1.67 3.38-6.25 1.09-10.22s-6.5-5.84-9.4-4.16c-2.89 1.67-3.38 6.24-1.09 10.22z"/><path d="M136.51 64.08c-22.64-2.37-34.04-7.45-39.5-12-17.75-14.81-11.33-28.55-22-25.5-10.5 3-10.48 14.69-17.5 18-8.5 4 2.04-35.17-6.5-32.5-8 2.5-8.97 22.34-21 27.5-10.5 4.5 6.61-46.59-8-35.5-14.5 11-35 55-1 67s84.45 15.48 101 15c17-.5 32.66-20.1 14.5-22z" stroke-linejoin="round" fill-rule="evenodd" stroke="#000" stroke-width="5" fill="#502d16"/></svg>